    ................ETC1337 Proudly Present's Ecstasy 2011 by LUX................


                     h t t p :/ /w w w . ecstasyfilm . c o m /





93 minutes/ Drama/ English/ 5.1 Dolby

A single church-going mother desperately tries to save her two daughters from walking down the same dark path she was once on; and a young woman fights against addiction to a mysterious party drug.
Starring: Charlie Bewley, Gillian Zinser
Directed by: Lux

1080p 


Format                           : DivX
Format/Info                      : Hack of AVI
File size                        : 3.61 GiB
Duration                         : 1h 35mn
Overall bit rate                 : 5 383 Kbps

Video
ID                               : 0
Format                           : MPEG-4 Visual
Format settings, BVOP            : Yes
Format settings, QPel            : No
Format settings, GMC             : No warppoints
Format settings, Matrix          : Default (H.263)
Codec ID                         : DX50
Codec ID/Hint                    : DivX 5
Duration                         : 1h 35mn
Bit rate                         : 5 246 Kbps
Width                            : 1 280 pixels
Height                           : 544 pixels
Display aspect ratio             : 2.35:1
Frame rate                       : 23.976 fps
Color space                      : YUV
Chroma subsampling               : 4:2:0
Bit depth                        : 8 bits
Scan type                        : Progressive
Compression mode                 : Lossy
Bits/(Pixel*Frame)               : 0.314
Stream size                      : 3.52 GiB (97%)
Writing library                  : DivX 2682

Audio
ID                               : 1
Format                           : MPEG Audio
Format version                   : Version 1
Format profile                   : Layer 3
Mode                             : Joint stereo
Mode extension                   : MS Stereo
Codec ID                         : 55
Codec ID/Hint                    : MP3
Duration                         : 1h 35mn
Bit rate mode                    : Constant
Bit rate                         : 128 Kbps
Channel(s)                       : 2 channels
Sampling rate                    : 44.1 KHz
Compression mode                 : Lossy
Stream size                      : 87.9 MiB (2%)
Alignment                        : Split accross interleaves
Interleave, duration             : 42 ms (1.00 video frame)
Interleave, preload duration     : 500 ms
Title                            : Audio


Please SEED, comment and Enjoy!


ETC1337@gmail.com

